<svg width="256.000000" height="256.000000" viewBox="0 0 256 256" fill="none" xmlns="http://www.w3.org/2000/svg" xmlns:xlink="http://www.w3.org/1999/xlink">
	<desc>
			Filled Sheet
	</desc>
	<defs>
		<radialGradient id="fillGrad" cx="128" cy="128" r="100" gradientUnits="userSpaceOnUse">
			<stop offset="0" stop-color="#7FA6CC"/>
			<stop offset="1" stop-color="#43617F"/>
		</radialGradient>
	</defs>
	<g id="sheet" transform="translate(-37.12,-37.12) scale(1.29)">
		<path id="sheetFace" d="M60 84Q128 58 196 88Q218 150 180 196Q120 218 64 188Q40 132 60 84Z" fill="url(#fillGrad)" fill-opacity="1.000000"/>
		<path id="boundaryOutline" d="M60 84Q128 58 196 88Q218 150 180 196Q120 218 64 188Q40 132 60 84Z" stroke="#2E2E2E" stroke-opacity="1.000000" stroke-width="18.000000" stroke-linejoin="round" fill="none"/>
		<path id="boundaryFill" d="M60 84Q128 58 196 88Q218 150 180 196Q120 218 64 188Q40 132 60 84Z" stroke="#E38B5E" stroke-opacity="1.000000" stroke-width="10.000000" stroke-linejoin="round" fill="none"/>
	</g>
</svg>
