<svg width="64" height="64" viewBox="0 0 64 64" fill="none" xmlns="http://www.w3.org/2000/svg">
  <desc>Sketch Intersection Curve</desc>
  <defs>
    <clipPath id="clipIntersectionCurve">
      <rect width="64" height="64" fill="white" fill-opacity="0"/>
    </clipPath>
    <linearGradient id="sheetFill" x1="32" y1="7" x2="32" y2="57" gradientUnits="userSpaceOnUse">
      <stop offset="0" stop-color="#E9E9E9"/>
      <stop offset="1" stop-color="#D4D4D4"/>
    </linearGradient>
  </defs>
  <g clip-path="url(#clipIntersectionCurve)">
    <path d="M 31.4 56.3 29.5 53.4 24.7 45.9 23.5 45.4 20.5 44.1 23.5 47.5 Z" fill="url(#sheetFill)" stroke="#8E8E8E" stroke-width="1.4" fill-rule="evenodd" stroke-linejoin="round"/>
    <path d="M 21.1 41.1 18.7 38.7 12.6 32.6 12.6 32.3 12.6 31.4 10.6 29.7 5.3 25.3 5.3 25.0 5.3 24.1 9.7 28.9 Z
    M 29.0 15.0 28.6 14.7 27.8 13.8 26.4 13.8 22.9 13.8 24.6 14.1 Z
    M 21.7 15.0 21.4 14.7 20.5 13.8 18.3 13.6 12.6 13.2 15.1 13.7 Z" fill="#8E8E8E" fill-rule="evenodd"/>
    <path d="M 50.2 42.3 47.0 39.1 38.7 30.8 37.0 29.8 32.6 27.1 37.5 31.4 Z
    M 13.2 22.3 12.5 22.0 10.8 21.1 10.6 20.6 10.2 19.3 11.0 20.1 Z" fill="#00A9D0" fill-rule="evenodd"/>
  </g>
</svg>
